<svg width="144" height="17" viewBox="0 0 144 17" fill="none" xmlns="http://www.w3.org/2000/svg">
<g clip-path="url(#clip0_10076_3)">
<path d="M16 8.52246C16 4.10418 12.4183 0.522461 8 0.522461C3.58172 0.522461 0 4.10418 0 8.52246C0 12.5154 2.92547 15.8251 6.75 16.4253V10.835H4.71875V8.52246H6.75V6.75996C6.75 4.75496 7.94438 3.64746 9.77172 3.64746C10.6467 3.64746 11.5625 3.80371 11.5625 3.80371V5.77246H10.5538C9.56 5.77246 9.25 6.38918 9.25 7.02246V8.52246H11.4688L11.1141 10.835H9.25V16.4253C13.0745 15.8251 16 12.5154 16 8.52246Z" fill="#232536"/>
</g>
<g clip-path="url(#clip1_10076_3)">
<path d="M47.6999 15.0226C53.7362 15.0226 57.0387 10.0204 57.0387 5.68382C57.0387 5.5432 57.0356 5.39945 57.0293 5.25882C57.6718 4.79422 58.2262 4.21875 58.6665 3.55945C58.0682 3.82565 57.4329 3.9995 56.7824 4.07507C57.4674 3.66452 57.9802 3.01956 58.2259 2.25976C57.5815 2.64162 56.8769 2.91099 56.1421 3.05632C55.6471 2.53029 54.9925 2.18199 54.2796 2.06528C53.5668 1.94857 52.8353 2.06995 52.1983 2.41065C51.5614 2.75134 51.0544 3.29239 50.7557 3.95012C50.4571 4.60786 50.3835 5.34566 50.5462 6.04945C49.2415 5.98398 47.9651 5.64505 46.7998 5.05465C45.6345 4.46425 44.6063 3.63554 43.7818 2.62226C43.3628 3.34475 43.2345 4.19968 43.4232 5.01331C43.6118 5.82694 44.1032 6.53821 44.7974 7.00257C44.2763 6.98603 43.7665 6.8457 43.3103 6.5932V6.63382C43.3098 7.39202 43.5719 8.12697 44.052 8.71376C44.5322 9.30055 45.2007 9.70296 45.944 9.85257C45.4612 9.98467 44.9545 10.0039 44.4631 9.90882C44.6728 10.5609 45.0809 11.1312 45.6304 11.5401C46.1798 11.9491 46.8433 12.1763 47.5281 12.1901C46.3655 13.1033 44.9293 13.5987 43.4509 13.5963C43.1887 13.5959 42.9268 13.5799 42.6665 13.5482C44.1684 14.5117 45.9155 15.0235 47.6999 15.0226Z" fill="#232536"/>
</g>
<g clip-path="url(#clip2_10076_3)">
<path d="M93.333 1.96309C95.4705 1.96309 95.7236 1.97246 96.5643 2.00996C97.3455 2.04434 97.7674 2.17559 98.0486 2.28496C98.4205 2.42871 98.6893 2.60371 98.9674 2.88184C99.2486 3.16309 99.4205 3.42871 99.5643 3.80059C99.6736 4.08184 99.8049 4.50684 99.8393 5.28496C99.8768 6.12871 99.8861 6.38184 99.8861 8.51621C99.8861 10.6537 99.8768 10.9068 99.8393 11.7475C99.8049 12.5287 99.6736 12.9506 99.5643 13.2318C99.4205 13.6037 99.2455 13.8725 98.9674 14.1506C98.6861 14.4318 98.4205 14.6037 98.0486 14.7475C97.7674 14.8568 97.3424 14.9881 96.5643 15.0225C95.7205 15.06 95.4674 15.0693 93.333 15.0693C91.1955 15.0693 90.9424 15.06 90.1018 15.0225C89.3205 14.9881 88.8986 14.8568 88.6174 14.7475C88.2455 14.6037 87.9768 14.4287 87.6986 14.1506C87.4174 13.8693 87.2455 13.6037 87.1018 13.2318C86.9924 12.9506 86.8611 12.5256 86.8268 11.7475C86.7893 10.9037 86.7799 10.6506 86.7799 8.51621C86.7799 6.37871 86.7893 6.12559 86.8268 5.28496C86.8611 4.50371 86.9924 4.08184 87.1018 3.80059C87.2455 3.42871 87.4205 3.15996 87.6986 2.88184C87.9799 2.60059 88.2455 2.42871 88.6174 2.28496C88.8986 2.17559 89.3236 2.04434 90.1018 2.00996C90.9424 1.97246 91.1955 1.96309 93.333 1.96309ZM93.333 0.522461C91.1611 0.522461 90.8893 0.531836 90.0361 0.569336C89.1861 0.606836 88.6018 0.744336 88.0955 0.941211C87.5674 1.14746 87.1205 1.41934 86.6768 1.86621C86.2299 2.30996 85.958 2.75684 85.7518 3.28184C85.5549 3.79121 85.4174 4.37246 85.3799 5.22246C85.3424 6.07871 85.333 6.35059 85.333 8.52246C85.333 10.6943 85.3424 10.9662 85.3799 11.8193C85.4174 12.6693 85.5549 13.2537 85.7518 13.76C85.958 14.2881 86.2299 14.735 86.6768 15.1787C87.1205 15.6225 87.5674 15.8975 88.0924 16.1006C88.6018 16.2975 89.183 16.435 90.033 16.4725C90.8861 16.51 91.158 16.5193 93.3299 16.5193C95.5018 16.5193 95.7736 16.51 96.6268 16.4725C97.4768 16.435 98.0611 16.2975 98.5674 16.1006C99.0924 15.8975 99.5393 15.6225 99.983 15.1787C100.427 14.735 100.702 14.2881 100.905 13.7631C101.102 13.2537 101.239 12.6725 101.277 11.8225C101.314 10.9693 101.324 10.6975 101.324 8.52559C101.324 6.35371 101.314 6.08184 101.277 5.22871C101.239 4.37871 101.102 3.79434 100.905 3.28809C100.708 2.75684 100.436 2.30996 99.9893 1.86621C99.5455 1.42246 99.0986 1.14746 98.5736 0.944336C98.0643 0.747461 97.483 0.609961 96.633 0.572461C95.7768 0.531836 95.5049 0.522461 93.333 0.522461Z" fill="#232536"/>
<path d="M93.333 4.41309C91.0643 4.41309 89.2236 6.25371 89.2236 8.52246C89.2236 10.7912 91.0643 12.6318 93.333 12.6318C95.6018 12.6318 97.4424 10.7912 97.4424 8.52246C97.4424 6.25371 95.6018 4.41309 93.333 4.41309ZM93.333 11.1881C91.8611 11.1881 90.6674 9.99434 90.6674 8.52246C90.6674 7.05059 91.8611 5.85684 93.333 5.85684C94.8049 5.85684 95.9986 7.05059 95.9986 8.52246C95.9986 9.99434 94.8049 11.1881 93.333 11.1881Z" fill="#232536"/>
<path d="M98.5643 4.25051C98.5643 4.78176 98.133 5.20989 97.6049 5.20989C97.0736 5.20989 96.6455 4.77864 96.6455 4.25051C96.6455 3.71926 97.0768 3.29114 97.6049 3.29114C98.133 3.29114 98.5643 3.72239 98.5643 4.25051Z" fill="#232536"/>
</g>
<g clip-path="url(#clip3_10076_3)">
<path d="M142.816 0.522461H129.181C128.528 0.522461 128 1.03809 128 1.67559V15.3662C128 16.0037 128.528 16.5225 129.181 16.5225H142.816C143.469 16.5225 144 16.0037 144 15.3693V1.67559C144 1.03809 143.469 0.522461 142.816 0.522461ZM132.747 14.1568H130.372V6.51934H132.747V14.1568ZM131.559 5.47871C130.797 5.47871 130.181 4.86309 130.181 4.10371C130.181 3.34434 130.797 2.72871 131.559 2.72871C132.319 2.72871 132.934 3.34434 132.934 4.10371C132.934 4.85996 132.319 5.47871 131.559 5.47871ZM141.634 14.1568H139.262V10.4443C139.262 9.55996 139.247 8.41934 138.028 8.41934C136.794 8.41934 136.606 9.38496 136.606 10.3818V14.1568H134.238V6.51934H136.512V7.56309H136.544C136.859 6.96309 137.634 6.32871 138.788 6.32871C141.191 6.32871 141.634 7.90996 141.634 9.96621V14.1568Z" fill="#232536"/>
</g>
<defs>
<clipPath id="clip0_10076_3">
<rect width="16" height="16" fill="white" transform="translate(0 0.522461)"/>
</clipPath>
<clipPath id="clip1_10076_3">
<rect width="16" height="16" fill="white" transform="translate(42.6665 0.522461)"/>
</clipPath>
<clipPath id="clip2_10076_3">
<rect width="16" height="16" fill="white" transform="translate(85.333 0.522461)"/>
</clipPath>
<clipPath id="clip3_10076_3">
<rect width="16" height="16" fill="white" transform="translate(128 0.522461)"/>
</clipPath>
</defs>
</svg>
